<mxfile host="65bd71144e">
    <diagram id="n_9g3MQTokLzOHZ6OQhu" name="Page-1">
        <mxGraphModel dx="1704" dy="1899" grid="1" gridSize="10" guides="1" tooltips="1" connect="1" arrows="1" fold="1" page="1" pageScale="1" pageWidth="850" pageHeight="1100" math="0" shadow="0">
            <root>
                <mxCell id="0"/>
                <mxCell id="1" parent="0"/>
                <mxCell id="24" value="" style="group;fillColor=none;gradientColor=none;" parent="1" vertex="1" connectable="0">
                    <mxGeometry x="340" y="-870" width="1020" height="620" as="geometry"/>
                </mxCell>
                <mxCell id="25" value="" style="rounded=1;whiteSpace=wrap;html=1;dashed=1;movable=1;resizable=1;rotatable=1;deletable=1;editable=1;connectable=1;" parent="24" vertex="1">
                    <mxGeometry width="1020" height="620" as="geometry"/>
                </mxCell>
                <mxCell id="26" value="counterGreen == 0" style="edgeStyle=orthogonalEdgeStyle;html=1;movable=1;resizable=1;rotatable=1;deletable=1;editable=1;connectable=1;entryX=0.5;entryY=0;entryDx=0;entryDy=0;" parent="24" source="27" edge="1" target="33">
                    <mxGeometry relative="1" as="geometry">
                        <mxPoint x="226.66666666666666" y="105.28301886792453" as="targetPoint"/>
                    </mxGeometry>
                </mxCell>
                <mxCell id="27" value="&lt;span style=&quot;font-size: 10px;&quot;&gt;AUTO&lt;br&gt;GREEN&lt;br&gt;&lt;/span&gt;" style="ellipse;whiteSpace=wrap;html=1;aspect=fixed;fillColor=#008a00;strokeColor=#005700;movable=1;resizable=1;rotatable=1;deletable=1;editable=1;connectable=1;fontColor=#ffffff;" parent="24" vertex="1">
                    <mxGeometry x="113.33333333333333" y="30.000566037735847" width="75.55555555555556" height="75.55555555555556" as="geometry"/>
                </mxCell>
                <mxCell id="28" value="counterRed&lt;br&gt;==0" style="edgeStyle=orthogonalEdgeStyle;html=1;exitX=0;exitY=0.5;exitDx=0;exitDy=0;movable=1;resizable=1;rotatable=1;deletable=1;editable=1;connectable=1;" parent="24" source="30" target="27" edge="1">
                    <mxGeometry x="0.0429" relative="1" as="geometry">
                        <Array as="points">
                            <mxPoint x="75.55555555555556" y="479.62264150943395"/>
                            <mxPoint x="75.55555555555556" y="140.37735849056602"/>
                        </Array>
                        <mxPoint as="offset"/>
                    </mxGeometry>
                </mxCell>
                <mxCell id="30" value="&lt;font style=&quot;font-size: 10px;&quot;&gt;AUTO&lt;br&gt;RED&lt;br&gt;&lt;/font&gt;" style="ellipse;whiteSpace=wrap;html=1;aspect=fixed;fillColor=#e51400;strokeColor=#B20000;movable=1;resizable=1;rotatable=1;deletable=1;editable=1;connectable=1;fontColor=#ffffff;" parent="24" vertex="1">
                    <mxGeometry x="113.33333333333333" y="432.8301886792453" width="75.55555555555556" height="75.55555555555556" as="geometry"/>
                </mxCell>
                <mxCell id="31" value="counterYellow&lt;br&gt;==0" style="edgeStyle=orthogonalEdgeStyle;html=1;entryX=0.5;entryY=0;entryDx=0;entryDy=0;movable=1;resizable=1;rotatable=1;deletable=1;editable=1;connectable=1;" parent="24" source="33" target="30" edge="1">
                    <mxGeometry relative="1" as="geometry"/>
                </mxCell>
                <mxCell id="33" value="&lt;span style=&quot;font-size: 10px;&quot;&gt;AUTO&lt;br&gt;YELLOW&lt;br&gt;&lt;/span&gt;" style="ellipse;whiteSpace=wrap;html=1;aspect=fixed;fillColor=#e3c800;strokeColor=#B09500;movable=1;resizable=1;rotatable=1;deletable=1;editable=1;connectable=1;fontColor=#000000;" parent="24" vertex="1">
                    <mxGeometry x="113.33333333333333" y="245.66037735849056" width="75.55555555555556" height="75.55555555555556" as="geometry"/>
                </mxCell>
                <mxCell id="34" value="&lt;span style=&quot;font-size: 10px;&quot;&gt;RED&lt;br&gt;GREEN&lt;br&gt;MANUAL&lt;br&gt;&lt;/span&gt;" style="ellipse;whiteSpace=wrap;html=1;aspect=fixed;fillColor=#FF3333;strokeColor=#005700;movable=1;resizable=1;rotatable=1;deletable=1;editable=1;connectable=1;fontColor=#ffffff;gradientColor=#006600;gradientDirection=south;" parent="24" vertex="1">
                    <mxGeometry x="340" y="30.000566037735847" width="75.55555555555556" height="75.55555555555556" as="geometry"/>
                </mxCell>
                <mxCell id="35" value="isPress(MODE)" style="edgeStyle=orthogonalEdgeStyle;jumpSize=0;html=1;entryX=0;entryY=0.5;entryDx=0;entryDy=0;movable=1;resizable=1;rotatable=1;deletable=1;editable=1;connectable=1;" parent="24" source="27" target="34" edge="1">
                    <mxGeometry x="0.25" y="10" relative="1" as="geometry">
                        <mxPoint as="offset"/>
                        <mxPoint x="302.22222222222223" y="105.28301886792453" as="targetPoint"/>
                    </mxGeometry>
                </mxCell>
                <mxCell id="36" value="&lt;span style=&quot;font-size: 10px;&quot;&gt;RED&lt;br&gt;AMBER&lt;br&gt;MANUAL&lt;br&gt;&lt;/span&gt;" style="ellipse;whiteSpace=wrap;html=1;aspect=fixed;fillColor=#FF0000;strokeColor=#B09500;movable=1;resizable=1;rotatable=1;deletable=1;editable=1;connectable=1;fontColor=#000000;gradientColor=#FFFF00;" parent="24" vertex="1">
                    <mxGeometry x="340" y="165.66037735849056" width="75.55555555555556" height="75.55555555555556" as="geometry"/>
                </mxCell>
                <mxCell id="37" value="isPress(COLOR)" style="edgeStyle=orthogonalEdgeStyle;jumpSize=0;html=1;movable=1;resizable=1;rotatable=1;deletable=1;editable=1;connectable=1;" parent="24" source="34" target="36" edge="1">
                    <mxGeometry relative="1" as="geometry"/>
                </mxCell>
                <mxCell id="38" value="isPress(COLOR)" style="edgeStyle=orthogonalEdgeStyle;jumpSize=0;html=1;entryX=0;entryY=1;entryDx=0;entryDy=0;exitX=0;exitY=0.5;exitDx=0;exitDy=0;movable=1;resizable=1;rotatable=1;deletable=1;editable=1;connectable=1;" parent="24" source="39" target="34" edge="1">
                    <mxGeometry x="-0.0977" y="2" relative="1" as="geometry">
                        <Array as="points">
                            <mxPoint x="340" y="480"/>
                            <mxPoint x="302.22222222222223" y="480"/>
                            <mxPoint x="302.22222222222223" y="100"/>
                            <mxPoint x="349.44444444444446" y="100"/>
                            <mxPoint x="349.44444444444446" y="98"/>
                        </Array>
                        <mxPoint x="351.3333333333333" y="128.67924528301887" as="targetPoint"/>
                        <mxPoint as="offset"/>
                    </mxGeometry>
                </mxCell>
                <mxCell id="39" value="&lt;font style=&quot;font-size: 10px;&quot;&gt;AMBER&lt;br&gt;RED&lt;br&gt;MANUAL&lt;br&gt;&lt;/font&gt;" style="ellipse;whiteSpace=wrap;html=1;aspect=fixed;fillColor=#CCCC00;strokeColor=#B20000;movable=1;resizable=1;rotatable=1;deletable=1;editable=1;connectable=1;fontColor=#ffffff;gradientColor=#990000;" parent="24" vertex="1">
                    <mxGeometry x="340" y="432.8301886792453" width="75.55555555555556" height="75.55555555555556" as="geometry"/>
                </mxCell>
                <mxCell id="40" value="isPress(COLOR)" style="edgeStyle=orthogonalEdgeStyle;jumpSize=0;html=1;movable=1;resizable=1;rotatable=1;deletable=1;editable=1;connectable=1;entryX=0.5;entryY=0;entryDx=0;entryDy=0;" parent="24" target="89" edge="1">
                    <mxGeometry relative="1" as="geometry">
                        <mxPoint x="377.77777777777777" y="240" as="sourcePoint"/>
                    </mxGeometry>
                </mxCell>
                <mxCell id="43" style="html=1;endArrow=classic;endFill=1;movable=1;resizable=1;rotatable=1;deletable=1;editable=1;connectable=1;exitX=0;exitY=1;exitDx=0;exitDy=0;" parent="24" edge="1" source="44">
                    <mxGeometry relative="1" as="geometry">
                        <mxPoint x="578" y="140.37735849056602" as="sourcePoint"/>
                        <mxPoint x="528.8888888888889" y="140.37735849056602" as="targetPoint"/>
                    </mxGeometry>
                </mxCell>
                <mxCell id="44" value="&lt;span style=&quot;font-size: 10px;&quot;&gt;TUNING&amp;nbsp;&lt;br&gt;GREEN&lt;br&gt;&lt;/span&gt;" style="ellipse;whiteSpace=wrap;html=1;aspect=fixed;fillColor=#008a00;strokeColor=#005700;movable=1;resizable=1;rotatable=1;deletable=1;editable=1;connectable=1;fontColor=#ffffff;" parent="24" vertex="1">
                    <mxGeometry x="566.6666666666666" y="30.000566037735847" width="75.55555555555556" height="75.55555555555556" as="geometry"/>
                </mxCell>
                <mxCell id="45" value="isPress(MODE)" style="edgeStyle=none;html=1;entryX=0;entryY=0.5;entryDx=0;entryDy=0;endArrow=classic;endFill=1;movable=1;resizable=1;rotatable=1;deletable=1;editable=1;connectable=1;" parent="24" source="34" target="44" edge="1">
                    <mxGeometry x="0.4286" y="10" relative="1" as="geometry">
                        <Array as="points"/>
                        <mxPoint as="offset"/>
                    </mxGeometry>
                </mxCell>
                <mxCell id="46" style="edgeStyle=none;html=1;endArrow=classic;endFill=1;movable=1;resizable=1;rotatable=1;deletable=1;editable=1;connectable=1;" parent="24" source="47" edge="1">
                    <mxGeometry relative="1" as="geometry">
                        <mxPoint x="528.8888888888889" y="292.45283018867923" as="targetPoint"/>
                    </mxGeometry>
                </mxCell>
                <mxCell id="47" value="&lt;span style=&quot;font-size: 10px;&quot;&gt;TUNING&lt;br&gt;YELLOW&lt;br&gt;&lt;/span&gt;" style="ellipse;whiteSpace=wrap;html=1;aspect=fixed;fillColor=#e3c800;strokeColor=#B09500;movable=1;resizable=1;rotatable=1;deletable=1;editable=1;connectable=1;fontColor=#000000;" parent="24" vertex="1">
                    <mxGeometry x="566.6666666666666" y="220.00037735849057" width="75.55555555555556" height="75.55555555555556" as="geometry"/>
                </mxCell>
                <mxCell id="48" value="isPresss(COLOR)" style="edgeStyle=none;html=1;entryX=0.5;entryY=0;entryDx=0;entryDy=0;" parent="24" source="44" target="47" edge="1">
                    <mxGeometry x="0.25" relative="1" as="geometry">
                        <mxPoint as="offset"/>
                    </mxGeometry>
                </mxCell>
                <mxCell id="49" style="edgeStyle=none;html=1;endArrow=classic;endFill=1;movable=1;resizable=1;rotatable=1;deletable=1;editable=1;connectable=1;" parent="24" source="51" edge="1">
                    <mxGeometry relative="1" as="geometry">
                        <mxPoint x="528.8888888888889" y="479.62264150943395" as="targetPoint"/>
                    </mxGeometry>
                </mxCell>
                <mxCell id="50" value="isPress(COLOR)" style="edgeStyle=orthogonalEdgeStyle;html=1;entryX=0.5;entryY=0;entryDx=0;entryDy=0;" parent="24" source="51" target="44" edge="1">
                    <mxGeometry x="-0.0624" relative="1" as="geometry">
                        <Array as="points">
                            <mxPoint x="604.4444444444445" y="560"/>
                            <mxPoint x="868.8888888888889" y="560"/>
                            <mxPoint x="868.8888888888889" y="10"/>
                            <mxPoint x="604.4444444444445" y="10"/>
                        </Array>
                        <mxPoint as="offset"/>
                    </mxGeometry>
                </mxCell>
                <mxCell id="51" value="&lt;font style=&quot;font-size: 10px;&quot;&gt;TUNING&lt;br&gt;RED&lt;br&gt;&lt;/font&gt;" style="ellipse;whiteSpace=wrap;html=1;aspect=fixed;fillColor=#e51400;strokeColor=#B20000;movable=1;resizable=1;rotatable=1;deletable=1;editable=1;connectable=1;fontColor=#ffffff;" parent="24" vertex="1">
                    <mxGeometry x="566.6666666666666" y="432.8301886792453" width="75.55555555555556" height="75.55555555555556" as="geometry"/>
                </mxCell>
                <mxCell id="52" value="isPress(COLOR)" style="edgeStyle=orthogonalEdgeStyle;html=1;" parent="24" source="47" target="51" edge="1">
                    <mxGeometry x="0.25" relative="1" as="geometry">
                        <mxPoint as="offset"/>
                    </mxGeometry>
                </mxCell>
                <mxCell id="56" style="edgeStyle=none;html=1;movable=1;resizable=1;rotatable=1;deletable=1;editable=1;connectable=1;entryX=1;entryY=1;entryDx=0;entryDy=0;exitX=0.5;exitY=1;exitDx=0;exitDy=0;" parent="24" source="57" target="44" edge="1">
                    <mxGeometry relative="1" as="geometry">
                        <mxPoint x="746.1111111111111" y="198.86792452830187" as="targetPoint"/>
                        <Array as="points">
                            <mxPoint x="670.5555555555555" y="120"/>
                        </Array>
                    </mxGeometry>
                </mxCell>
                <mxCell id="57" value="&lt;span style=&quot;font-size: 10px;&quot;&gt;Increase&lt;br&gt;T_GREEN&lt;br&gt;&lt;/span&gt;" style="ellipse;whiteSpace=wrap;html=1;aspect=fixed;movable=1;resizable=1;rotatable=1;deletable=1;editable=1;connectable=1;" parent="24" vertex="1">
                    <mxGeometry x="727.2222222222222" y="40.00056603773585" width="75.55555555555556" height="75.55555555555556" as="geometry"/>
                </mxCell>
                <mxCell id="63" value="" style="endArrow=none;html=1;movable=1;resizable=1;rotatable=1;deletable=1;editable=1;connectable=1;" parent="24" edge="1">
                    <mxGeometry width="50" height="50" relative="1" as="geometry">
                        <mxPoint x="528.8888888888889" y="573.2075471698113" as="sourcePoint"/>
                        <mxPoint x="528.8888888888889" y="140.37735849056602" as="targetPoint"/>
                    </mxGeometry>
                </mxCell>
                <mxCell id="64" value="isPress(MODE)" style="endArrow=classic;html=1;entryX=0;entryY=0.5;entryDx=0;entryDy=0;movable=1;resizable=1;rotatable=1;deletable=1;editable=1;connectable=1;" parent="24" target="27" edge="1">
                    <mxGeometry x="-0.7913" width="50" height="50" relative="1" as="geometry">
                        <mxPoint x="528.8888888888889" y="573.2075471698113" as="sourcePoint"/>
                        <mxPoint x="576.1111111111111" y="573.2075471698113" as="targetPoint"/>
                        <Array as="points">
                            <mxPoint x="37.77777777777778" y="573.2075471698113"/>
                            <mxPoint x="37.77777777777778" y="105.28301886792453"/>
                        </Array>
                        <mxPoint x="1" as="offset"/>
                    </mxGeometry>
                </mxCell>
                <mxCell id="66" value="isPress(INC)" style="edgeStyle=none;html=1;exitX=1;exitY=0.5;exitDx=0;exitDy=0;" parent="24" target="71" edge="1" source="47">
                    <mxGeometry relative="1" as="geometry">
                        <mxPoint x="642.222222222222" y="292.42943396226417" as="sourcePoint"/>
                    </mxGeometry>
                </mxCell>
                <mxCell id="70" style="edgeStyle=none;html=1;movable=1;resizable=1;rotatable=1;deletable=1;editable=1;connectable=1;entryX=1;entryY=1;entryDx=0;entryDy=0;exitX=0.5;exitY=1;exitDx=0;exitDy=0;" parent="24" source="71" target="47" edge="1">
                    <mxGeometry relative="1" as="geometry">
                        <mxPoint x="746.1111111111109" y="386.0143396226415" as="targetPoint"/>
                        <Array as="points">
                            <mxPoint x="661.1111111111111" y="339.2452830188679"/>
                        </Array>
                    </mxGeometry>
                </mxCell>
                <mxCell id="71" value="&lt;span style=&quot;font-size: 10px;&quot;&gt;Increase&lt;br&gt;T_YELLOW&lt;br&gt;&lt;/span&gt;" style="ellipse;whiteSpace=wrap;html=1;aspect=fixed;movable=1;resizable=1;rotatable=1;deletable=1;editable=1;connectable=1;" parent="24" vertex="1">
                    <mxGeometry x="727.2222222222222" y="219.9969811320755" width="75.55555555555556" height="75.55555555555556" as="geometry"/>
                </mxCell>
                <mxCell id="74" value="isPress(INC)" style="edgeStyle=none;html=1;" parent="24" target="79" edge="1">
                    <mxGeometry relative="1" as="geometry">
                        <mxPoint x="642.222222222222" y="479.6343396226415" as="sourcePoint"/>
                    </mxGeometry>
                </mxCell>
                <mxCell id="88" style="edgeStyle=none;html=1;exitX=0.5;exitY=1;exitDx=0;exitDy=0;entryX=1;entryY=1;entryDx=0;entryDy=0;" edge="1" parent="24" source="79" target="51">
                    <mxGeometry relative="1" as="geometry">
                        <Array as="points">
                            <mxPoint x="661.1111111111111" y="526.4150943396227"/>
                        </Array>
                    </mxGeometry>
                </mxCell>
                <mxCell id="79" value="&lt;span style=&quot;font-size: 10px;&quot;&gt;Increase&lt;br&gt;T_RED&lt;br&gt;&lt;/span&gt;" style="ellipse;whiteSpace=wrap;html=1;aspect=fixed;movable=1;resizable=1;rotatable=1;deletable=1;editable=1;connectable=1;" parent="24" vertex="1">
                    <mxGeometry x="727.2222222222222" y="432.8318867924528" width="75.55555555555556" height="75.55555555555556" as="geometry"/>
                </mxCell>
                <mxCell id="81" value="isPress(INC)" style="edgeStyle=none;html=1;" parent="24" source="44" target="57" edge="1">
                    <mxGeometry relative="1" as="geometry"/>
                </mxCell>
                <mxCell id="90" value="isPress(COLOR)" style="edgeStyle=none;html=1;exitX=0.5;exitY=1;exitDx=0;exitDy=0;entryX=0.5;entryY=0;entryDx=0;entryDy=0;" edge="1" parent="24" source="89" target="39">
                    <mxGeometry relative="1" as="geometry"/>
                </mxCell>
                <mxCell id="89" value="&lt;font style=&quot;font-size: 10px;&quot;&gt;GREEN&lt;br&gt;RED&lt;br&gt;MANUAL&lt;br&gt;&lt;/font&gt;" style="ellipse;whiteSpace=wrap;html=1;aspect=fixed;fillColor=#006600;strokeColor=#B20000;movable=1;resizable=1;rotatable=1;deletable=1;editable=1;connectable=1;fontColor=#ffffff;gradientColor=#CC0000;" vertex="1" parent="24">
                    <mxGeometry x="340" y="300.0001886792453" width="75.55555555555556" height="75.55555555555556" as="geometry"/>
                </mxCell>
                <mxCell id="94" style="edgeStyle=none;html=1;exitX=1;exitY=0.5;exitDx=0;exitDy=0;" edge="1" parent="1" source="33">
                    <mxGeometry relative="1" as="geometry">
                        <mxPoint x="580" y="-800" as="targetPoint"/>
                        <Array as="points">
                            <mxPoint x="580" y="-597"/>
                        </Array>
                    </mxGeometry>
                </mxCell>
                <mxCell id="95" style="edgeStyle=none;html=1;exitX=1;exitY=0.5;exitDx=0;exitDy=0;" edge="1" parent="1" source="30">
                    <mxGeometry relative="1" as="geometry">
                        <mxPoint x="580" y="-600" as="targetPoint"/>
                        <Array as="points">
                            <mxPoint x="580" y="-409"/>
                        </Array>
                    </mxGeometry>
                </mxCell>
                <mxCell id="96" style="edgeStyle=none;html=1;exitX=1;exitY=0.5;exitDx=0;exitDy=0;" edge="1" parent="1" source="36">
                    <mxGeometry relative="1" as="geometry">
                        <mxPoint x="810" y="-800" as="targetPoint"/>
                        <Array as="points">
                            <mxPoint x="810" y="-677"/>
                        </Array>
                    </mxGeometry>
                </mxCell>
                <mxCell id="98" style="edgeStyle=none;html=1;exitX=1;exitY=0.5;exitDx=0;exitDy=0;" edge="1" parent="1" source="89">
                    <mxGeometry relative="1" as="geometry">
                        <mxPoint x="809.9999999999998" y="-680" as="targetPoint"/>
                        <Array as="points">
                            <mxPoint x="810" y="-542"/>
                        </Array>
                    </mxGeometry>
                </mxCell>
                <mxCell id="99" style="edgeStyle=none;html=1;exitX=1;exitY=0.5;exitDx=0;exitDy=0;" edge="1" parent="1" source="39">
                    <mxGeometry relative="1" as="geometry">
                        <mxPoint x="809.9999999999998" y="-550" as="targetPoint"/>
                        <Array as="points">
                            <mxPoint x="810" y="-410"/>
                        </Array>
                    </mxGeometry>
                </mxCell>
            </root>
        </mxGraphModel>
    </diagram>
</mxfile>